<svg width="157" height="36" viewBox="0 0 157 36" fill="none" xmlns="http://www.w3.org/2000/svg">
<path d="M0.783172 27V26.028H2.43917V2.772H0.783172V1.8H10.1792V7.002H9.18917C9.18917 6.03 9.13517 5.232 9.02717 4.608C8.93117 3.972 8.72717 3.51 8.41517 3.222C8.10317 2.922 7.61717 2.772 6.95717 2.772H5.15717V13.752H8.50517V11.898H9.47717V16.542H8.50517V14.724H5.15717V26.028H6.81317V27H0.783172ZM15.4 27.378C14.692 27.378 14.056 27.21 13.492 26.874C12.928 26.526 12.478 26.01 12.142 25.326C11.818 24.63 11.656 23.772 11.656 22.752C11.656 21.624 11.872 20.694 12.304 19.962C12.736 19.218 13.27 18.594 13.906 18.09C14.542 17.574 15.178 17.112 15.814 16.704C16.462 16.296 17.002 15.87 17.434 15.426C17.866 14.97 18.082 14.424 18.082 13.788C18.082 12.888 18.016 12.084 17.884 11.376C17.752 10.656 17.53 10.092 17.218 9.684C16.918 9.276 16.498 9.072 15.958 9.072C15.37 9.072 14.872 9.276 14.464 9.684C14.068 10.08 13.87 10.542 13.87 11.07C13.87 11.346 13.912 11.58 13.996 11.772C14.08 11.952 14.158 12.138 14.23 12.33C14.314 12.522 14.356 12.768 14.356 13.068C14.356 13.5 14.254 13.854 14.05 14.13C13.846 14.394 13.552 14.526 13.168 14.526C12.796 14.526 12.508 14.364 12.304 14.04C12.1 13.716 11.998 13.266 11.998 12.69C11.998 11.826 12.184 11.04 12.556 10.332C12.928 9.612 13.444 9.042 14.104 8.622C14.764 8.202 15.532 7.992 16.408 7.992C17.272 7.992 18.028 8.202 18.676 8.622C19.336 9.03 19.852 9.678 20.224 10.566C20.596 11.442 20.782 12.594 20.782 14.022V24.768C20.782 25.272 20.836 25.62 20.944 25.812C21.064 25.992 21.232 26.082 21.448 26.082C21.628 26.082 21.784 26.04 21.916 25.956C22.06 25.872 22.168 25.794 22.24 25.722L22.762 26.532C22.618 26.7 22.354 26.856 21.97 27C21.586 27.156 21.136 27.234 20.62 27.234C20.152 27.234 19.75 27.156 19.414 27C19.078 26.856 18.814 26.646 18.622 26.37C18.442 26.094 18.34 25.77 18.316 25.398C18.244 25.626 18.1 25.896 17.884 26.208C17.668 26.52 17.362 26.79 16.966 27.018C16.57 27.258 16.048 27.378 15.4 27.378ZM16.156 26.028C16.564 26.028 16.906 25.878 17.182 25.578C17.47 25.266 17.692 24.894 17.848 24.462C18.004 24.03 18.082 23.634 18.082 23.274V15.858C18.046 16.194 17.842 16.536 17.47 16.884C17.11 17.232 16.696 17.64 16.228 18.108C15.76 18.576 15.346 19.158 14.986 19.854C14.638 20.538 14.464 21.396 14.464 22.428C14.464 23.592 14.602 24.486 14.878 25.11C15.154 25.722 15.58 26.028 16.156 26.028ZM27.0983 27.072L23.8043 9.126H22.3463V8.154H27.9623V9.126H26.6843L28.6463 21.546L30.6263 9.126H29.3663V8.154H33.0923V9.126H31.7063L28.5203 27.072H27.0983ZM39.1403 27.396C38.4803 27.396 37.8503 27.18 37.2503 26.748C36.6623 26.316 36.1343 25.68 35.6663 24.84C35.1983 24 34.8323 22.968 34.5683 21.744C34.3043 20.52 34.1723 19.11 34.1723 17.514C34.1723 15.774 34.3103 14.298 34.5863 13.086C34.8743 11.874 35.2523 10.896 35.7203 10.152C36.2003 9.396 36.7343 8.85 37.3223 8.514C37.9103 8.166 38.5163 7.992 39.1403 7.992C39.7523 7.992 40.3523 8.166 40.9403 8.514C41.5403 8.85 42.0743 9.396 42.5423 10.152C43.0223 10.896 43.4063 11.874 43.6943 13.086C43.9823 14.298 44.1263 15.774 44.1263 17.514C44.1263 19.11 43.9883 20.52 43.7123 21.744C43.4483 22.968 43.0823 24 42.6143 24.84C42.1463 25.68 41.6123 26.316 41.0123 26.748C40.4123 27.18 39.7883 27.396 39.1403 27.396ZM39.1403 26.388C39.8003 26.388 40.3283 25.656 40.7243 24.192C41.1323 22.728 41.3363 20.502 41.3363 17.514C41.3363 14.562 41.1323 12.408 40.7243 11.052C40.3283 9.684 39.8003 9 39.1403 9C38.4803 9 37.9463 9.684 37.5383 11.052C37.1303 12.408 36.9263 14.562 36.9263 17.514C36.9263 20.502 37.1303 22.728 37.5383 24.192C37.9463 25.656 38.4803 26.388 39.1403 26.388ZM45.5691 27V26.028H47.3511V9.126H45.5691V8.154H49.9071L49.9971 10.062C50.0331 9.918 50.1531 9.678 50.3571 9.342C50.5731 9.006 50.8671 8.7 51.2391 8.424C51.6111 8.136 52.0551 7.992 52.5711 7.992C53.1711 7.992 53.6631 8.202 54.0471 8.622C54.4311 9.042 54.7191 9.606 54.9111 10.314C55.1031 11.022 55.1991 11.808 55.1991 12.672C55.1991 13.272 55.0911 13.734 54.8751 14.058C54.6711 14.37 54.3771 14.526 53.9931 14.526C53.6451 14.526 53.3691 14.388 53.1651 14.112C52.9611 13.836 52.8591 13.458 52.8591 12.978C52.8591 12.678 52.9071 12.426 53.0031 12.222C53.1111 12.006 53.2131 11.79 53.3091 11.574C53.4051 11.346 53.4531 11.076 53.4531 10.764C53.4531 10.188 53.3451 9.768 53.1291 9.504C52.9251 9.24 52.6551 9.108 52.3191 9.108C51.8751 9.108 51.4791 9.312 51.1311 9.72C50.7951 10.128 50.5311 10.656 50.3391 11.304C50.1471 11.94 50.0511 12.6 50.0511 13.284V26.028H51.8691V27H45.5691ZM56.3303 27V26.028H58.1483V9.126H56.3303V8.154H60.8483V26.028H62.7023V27H56.3303ZM59.4803 4.734C58.9283 4.734 58.4603 4.542 58.0763 4.158C57.6923 3.774 57.5003 3.312 57.5003 2.772C57.5003 2.22 57.6923 1.758 58.0763 1.386C58.4603 1.002 58.9283 0.809999 59.4803 0.809999C59.9963 0.809999 60.4463 1.002 60.8303 1.386C61.2143 1.758 61.4063 2.22 61.4063 2.772C61.4063 3.312 61.2143 3.774 60.8303 4.158C60.4463 4.542 59.9963 4.734 59.4803 4.734ZM68.147 27.324C67.655 27.324 67.175 27.234 66.707 27.054C66.251 26.886 65.873 26.556 65.573 26.064C65.285 25.572 65.141 24.858 65.141 23.922V9.126H62.981V8.154H65.141C65.417 7.938 65.669 7.56 65.897 7.02C66.125 6.48 66.317 5.856 66.473 5.148C66.641 4.428 66.755 3.714 66.815 3.006H67.841V8.154H70.397V9.126H67.841V25.074C67.841 25.554 67.943 25.878 68.147 26.046C68.351 26.214 68.549 26.298 68.741 26.298C68.993 26.298 69.215 26.244 69.407 26.136C69.599 26.016 69.737 25.902 69.821 25.794L70.379 26.55C70.151 26.766 69.845 26.946 69.461 27.09C69.077 27.246 68.639 27.324 68.147 27.324ZM76.37 27.378C75.494 27.378 74.744 27.114 74.12 26.586C73.496 26.058 72.986 25.338 72.59 24.426C72.194 23.514 71.9 22.464 71.708 21.276C71.528 20.088 71.438 18.84 71.438 17.532C71.438 15.924 71.57 14.52 71.834 13.32C72.098 12.12 72.458 11.13 72.914 10.35C73.382 9.558 73.904 8.97 74.48 8.586C75.068 8.19 75.68 7.992 76.316 7.992C77.06 7.992 77.708 8.22 78.26 8.676C78.812 9.12 79.268 9.726 79.628 10.494C80 11.25 80.276 12.114 80.456 13.086C80.636 14.046 80.726 15.036 80.726 16.056C80.726 16.296 80.72 16.536 80.708 16.776C80.708 17.004 80.702 17.232 80.69 17.46H73.94V16.488H78.062C78.062 14.916 78.008 13.572 77.9 12.456C77.792 11.328 77.612 10.464 77.36 9.864C77.108 9.264 76.76 8.964 76.316 8.964C75.884 8.964 75.506 9.258 75.182 9.846C74.87 10.434 74.624 11.328 74.444 12.528C74.264 13.716 74.174 15.228 74.174 17.064C74.174 18.36 74.204 19.572 74.264 20.7C74.336 21.816 74.456 22.8 74.624 23.652C74.804 24.492 75.056 25.146 75.38 25.614C75.716 26.082 76.148 26.316 76.676 26.316C77.468 26.316 78.086 26.094 78.53 25.65C78.986 25.194 79.298 24.738 79.466 24.282L80.312 24.768C80.072 25.452 79.604 26.058 78.908 26.586C78.212 27.114 77.366 27.378 76.37 27.378ZM90.4232 27V26.028H92.3492V2.772H91.0892C90.4652 2.772 89.9972 2.916 89.6852 3.204C89.3732 3.48 89.1632 3.93 89.0552 4.554C88.9472 5.166 88.8932 5.982 88.8932 7.002H87.9212V1.8H99.4592V7.002H98.4872C98.4872 5.982 98.4332 5.166 98.3252 4.554C98.2172 3.93 98.0072 3.48 97.6952 3.204C97.3832 2.916 96.9152 2.772 96.2912 2.772H95.0312V26.028H97.0292V27H90.4232ZM100.786 27V26.028H102.55V0.971998H100.786V-2.14577e-06H105.25V10.26C105.286 10.044 105.43 9.756 105.682 9.396C105.946 9.024 106.306 8.694 106.762 8.406C107.23 8.118 107.776 7.974 108.4 7.974C109.012 7.974 109.588 8.136 110.128 8.46C110.668 8.772 111.106 9.342 111.442 10.17C111.79 10.998 111.964 12.192 111.964 13.752V26.028H113.71V27H107.86V26.028H109.264V14.094C109.264 12.438 109.132 11.256 108.868 10.548C108.604 9.84 108.172 9.486 107.572 9.486C107.164 9.486 106.786 9.666 106.438 10.026C106.102 10.374 105.826 10.83 105.61 11.394C105.394 11.958 105.274 12.552 105.25 13.176V26.028H106.69V27H100.786ZM114.795 27V26.028H116.613V9.126H114.795V8.154H119.313V26.028H121.167V27H114.795ZM117.945 4.734C117.393 4.734 116.925 4.542 116.541 4.158C116.157 3.774 115.965 3.312 115.965 2.772C115.965 2.22 116.157 1.758 116.541 1.386C116.925 1.002 117.393 0.809999 117.945 0.809999C118.461 0.809999 118.911 1.002 119.295 1.386C119.679 1.758 119.871 2.22 119.871 2.772C119.871 3.312 119.679 3.774 119.295 4.158C118.911 4.542 118.461 4.734 117.945 4.734ZM122.266 27V26.028H124.048V9.126H122.266V8.154H126.712V10.296C126.796 9.984 126.964 9.654 127.216 9.306C127.48 8.946 127.828 8.64 128.26 8.388C128.692 8.124 129.196 7.992 129.772 7.992C130.336 7.992 130.882 8.13 131.41 8.406C131.938 8.682 132.37 9.216 132.706 10.008C133.054 10.8 133.228 11.97 133.228 13.518V26.028H134.974V27H129.034V26.028H130.528V13.824C130.528 12.276 130.39 11.16 130.114 10.476C129.85 9.78 129.43 9.432 128.854 9.432C128.566 9.432 128.296 9.546 128.044 9.774C127.792 10.002 127.57 10.302 127.378 10.674C127.186 11.046 127.036 11.448 126.928 11.88C126.82 12.312 126.76 12.732 126.748 13.14V26.028H128.224V27H122.266ZM141.54 35.964C140.496 35.964 139.572 35.754 138.768 35.334C137.964 34.914 137.334 34.344 136.878 33.624C136.434 32.904 136.212 32.088 136.212 31.176C136.212 30.48 136.314 29.874 136.518 29.358C136.734 28.854 136.998 28.434 137.31 28.098C137.622 27.762 137.934 27.492 138.246 27.288C138.57 27.096 138.846 26.97 139.074 26.91C138.966 26.886 138.786 26.82 138.534 26.712C138.282 26.604 138.012 26.442 137.724 26.226C137.448 25.998 137.208 25.71 137.004 25.362C136.812 25.002 136.716 24.57 136.716 24.066C136.716 23.574 136.818 23.166 137.022 22.842C137.226 22.506 137.466 22.248 137.742 22.068C138.03 21.888 138.288 21.786 138.516 21.762C138.552 21.75 138.606 21.744 138.678 21.744C138.75 21.732 138.792 21.732 138.804 21.744C138.648 21.612 138.462 21.396 138.246 21.096C138.03 20.796 137.814 20.4 137.598 19.908C137.394 19.404 137.22 18.798 137.076 18.09C136.932 17.37 136.86 16.536 136.86 15.588C136.86 14.16 136.998 12.96 137.274 11.988C137.55 11.016 137.916 10.236 138.372 9.648C138.828 9.06 139.332 8.64 139.884 8.388C140.448 8.124 141.018 7.992 141.594 7.992C142.602 7.992 143.442 8.292 144.114 8.892C144.786 9.492 145.29 10.338 145.626 11.43C145.962 12.51 146.13 13.794 146.13 15.282C146.13 16.686 145.998 17.874 145.734 18.846C145.47 19.818 145.116 20.598 144.672 21.186C144.228 21.774 143.73 22.2 143.178 22.464C142.638 22.716 142.08 22.842 141.504 22.842C140.928 22.842 140.472 22.776 140.136 22.644C139.812 22.5 139.62 22.41 139.56 22.374C139.548 22.362 139.53 22.356 139.506 22.356C139.494 22.356 139.47 22.356 139.434 22.356C139.218 22.356 138.972 22.47 138.696 22.698C138.42 22.914 138.282 23.232 138.282 23.652C138.282 24.204 138.558 24.648 139.11 24.984C139.662 25.308 140.628 25.578 142.008 25.794C143.664 26.034 144.906 26.544 145.734 27.324C146.574 28.104 146.994 29.268 146.994 30.816C146.994 31.728 146.832 32.508 146.508 33.156C146.184 33.816 145.752 34.35 145.212 34.758C144.684 35.166 144.096 35.466 143.448 35.658C142.812 35.862 142.176 35.964 141.54 35.964ZM141.54 35.046C142.464 35.046 143.196 34.698 143.736 34.002C144.276 33.318 144.546 32.484 144.546 31.5C144.546 30.384 144.372 29.556 144.024 29.016C143.676 28.488 143.106 28.11 142.314 27.882C142.038 27.798 141.768 27.708 141.504 27.612C141.24 27.528 141 27.45 140.784 27.378C140.58 27.318 140.418 27.276 140.298 27.252C139.926 27.444 139.608 27.732 139.344 28.116C139.08 28.512 138.876 28.962 138.732 29.466C138.6 29.982 138.534 30.528 138.534 31.104C138.534 31.764 138.642 32.394 138.858 32.994C139.074 33.594 139.404 34.086 139.848 34.47C140.292 34.854 140.856 35.046 141.54 35.046ZM141.504 21.852C141.852 21.852 142.164 21.69 142.44 21.366C142.728 21.042 142.956 20.418 143.124 19.494C143.292 18.558 143.376 17.178 143.376 15.354C143.376 13.602 143.292 12.27 143.124 11.358C142.968 10.446 142.752 9.822 142.476 9.486C142.2 9.15 141.894 8.982 141.558 8.982C141.222 8.982 140.904 9.15 140.604 9.486C140.316 9.822 140.082 10.458 139.902 11.394C139.722 12.318 139.632 13.668 139.632 15.444C139.632 17.244 139.722 18.606 139.902 19.53C140.082 20.442 140.31 21.06 140.586 21.384C140.874 21.696 141.18 21.852 141.504 21.852ZM143.358 9.198C143.454 8.526 143.76 7.98 144.276 7.56C144.792 7.128 145.344 6.912 145.932 6.912C146.4 6.912 146.736 7.026 146.94 7.254C147.144 7.47 147.246 7.758 147.246 8.118C147.246 8.454 147.156 8.724 146.976 8.928C146.796 9.132 146.55 9.234 146.238 9.234C145.974 9.234 145.776 9.168 145.644 9.036C145.512 8.904 145.398 8.772 145.302 8.64C145.206 8.508 145.056 8.442 144.852 8.442C144.696 8.442 144.552 8.514 144.42 8.658C144.3 8.79 144.24 8.982 144.24 9.234L143.358 9.198ZM152.796 27.396C152.196 27.396 151.722 27.312 151.374 27.144C151.026 26.988 150.75 26.832 150.546 26.676C150.342 26.52 150.156 26.442 149.988 26.442C149.844 26.442 149.742 26.49 149.682 26.586C149.634 26.682 149.61 26.82 149.61 27H148.782V21.654H149.772C149.82 22.362 149.916 23.01 150.06 23.598C150.216 24.186 150.414 24.69 150.654 25.11C150.894 25.53 151.188 25.854 151.536 26.082C151.896 26.31 152.31 26.424 152.778 26.424C153.246 26.424 153.618 26.298 153.894 26.046C154.17 25.794 154.368 25.47 154.488 25.074C154.62 24.678 154.686 24.27 154.686 23.85C154.686 23.262 154.584 22.686 154.38 22.122C154.188 21.546 153.894 20.964 153.498 20.376C153.102 19.788 152.604 19.176 152.004 18.54C151.14 17.604 150.408 16.638 149.808 15.642C149.208 14.646 148.908 13.464 148.908 12.096C148.908 11.172 149.082 10.41 149.43 9.81C149.79 9.21 150.252 8.76 150.816 8.46C151.392 8.148 151.998 7.992 152.634 7.992C153.102 7.992 153.486 8.052 153.786 8.172C154.086 8.292 154.326 8.412 154.506 8.532C154.686 8.64 154.836 8.694 154.956 8.694C155.064 8.694 155.142 8.652 155.19 8.568C155.238 8.472 155.268 8.334 155.28 8.154H156.126V13.338H155.154C155.106 12.642 155.022 12.024 154.902 11.484C154.782 10.932 154.62 10.476 154.416 10.116C154.212 9.744 153.966 9.462 153.678 9.27C153.39 9.078 153.054 8.982 152.67 8.982C152.082 8.982 151.62 9.198 151.284 9.63C150.948 10.062 150.78 10.638 150.78 11.358C150.78 12.162 151.002 12.924 151.446 13.644C151.902 14.364 152.544 15.162 153.372 16.038C154.044 16.758 154.626 17.472 155.118 18.18C155.61 18.876 155.988 19.596 156.252 20.34C156.516 21.084 156.648 21.888 156.648 22.752C156.648 23.7 156.492 24.522 156.18 25.218C155.868 25.914 155.424 26.454 154.848 26.838C154.272 27.21 153.588 27.396 152.796 27.396Z" fill="white"/>
</svg>
